<!--
SPDX-FileCopyrightText: 2023 Marlon W (Mawoka)

SPDX-License-Identifier: MPL-2.0
-->
<svg xmlns="http://www.w3.org/2000/svg" width="666.667" height="666.667" preserveAspectRatio="xMidYMid meet" version="1.0" viewBox="0 0 500 500"><metadata>Created by potrace 1.16, written by Peter Selinger 2001-2019</metadata><g fill="currentColor" stroke="none"><path d="M2345 4799 c-123 -28 -281 -109 -400 -207 -180 -147 -461 -492 -640 -787 -43 -71 -84 -137 -91 -145 -19 -24 -231 -387 -359 -615 -64 -115 -134 -237 -155 -270 -84 -134 -350 -635 -350 -659 0 -3 -16 -40 -36 -83 -66 -142 -85 -187 -119 -278 -48 -130 -83 -251 -100 -346 -19 -109 -19 -317 0 -409 63 -302 296 -519 677 -634 144 -43 251 -62 463 -81 94 -9 230 -22 303 -30 193 -21 1737 -21 1995 0 332 27 538 62 730 126 276 90 474 244 571 443 63 130 76 193 76 377 0 252 -49 426 -229 828 -133 294 -247 511 -436 826 -59 99 -128 216 -152 260 -25 44 -76 130 -113 190 -102 168 -230 384 -263 445 -112 205 -438 640 -554 740 -16 14 -58 50 -94 81 -125 110 -276 192 -414 224 -66 16 -247 18 -310 4z m33 -805 c99 -49 199 -159 338 -369 63 -95 194 -310 194 -318 0 -5 98 -177 110 -192 28 -36 195 -356 235 -450 49 -117 85 -254 85 -326 0 -53 -25 -132 -54 -172 -102 -139 -434 -186 -1201 -173 -442 7 -627 31 -752 95 -106 54 -153 130 -153 250 0 40 7 101 16 134 38 148 198 486 319 672 17 28 49 81 70 120 159 292 320 530 432 640 117 114 247 146 361 89z" transform="translate(0.000000,500.000000) scale(0.100000,-0.100000)"/></g></svg>
