<!--
SPDX-FileCopyrightText: 2023 Marlon W (Mawoka)

SPDX-License-Identifier: MPL-2.0
-->
<svg xmlns="http://www.w3.org/2000/svg" width="666.667" height="666.667" preserveAspectRatio="xMidYMid meet" version="1.0" viewBox="0 0 500 500"><metadata>Created by potrace 1.16, written by Peter Selinger 2001-2019</metadata><g fill="currentColor" stroke="none"><path d="M2410 4863 c-448 -27 -898 -195 -1281 -477 -142 -105 -402 -369 -503 -511 -227 -320 -372 -675 -433 -1060 -26 -159 -25 -567 0 -720 43 -258 108 -467 212 -683 56 -116 166 -307 184 -322 4 -3 24 -30 45 -60 121 -171 352 -402 518 -520 358 -252 719 -395 1128 -446 152 -19 457 -18 607 1 405 53 811 216 1124 451 247 185 471 427 615 664 67 111 74 123 104 189 43 90 53 140 48 230 -8 138 -78 240 -208 303 -57 28 -75 32 -150 32 -76 1 -93 -3 -158 -33 -82 -39 -142 -97 -181 -177 -39 -80 -134 -226 -206 -318 -162 -208 -426 -402 -690 -508 -74 -29 -289 -85 -378 -97 -101 -14 -353 -14 -454 0 -88 12 -253 55 -359 93 -310 112 -619 356 -799 631 -21 33 -49 76 -61 95 -20 30 -53 99 -109 225 -23 52 -62 186 -85 290 -26 120 -38 398 -21 515 46 332 168 616 372 866 129 158 351 337 534 431 261 133 597 199 890 174 379 -33 730 -188 1000 -444 155 -146 259 -284 356 -471 54 -104 117 -166 208 -201 62 -25 78 -27 158 -23 67 4 100 11 138 31 79 40 131 91 167 165 31 63 33 73 33 172 l0 105 -51 105 c-103 208 -281 447 -470 630 -124 119 -145 137 -262 221 -454 329 -1007 487 -1582 452z" transform="translate(0.000000,500.000000) scale(0.100000,-0.100000)"/><path d="M2350 4015 c-191 -30 -337 -78 -507 -165 -90 -47 -250 -152 -273 -179 -3 -4 -29 -26 -57 -50 -107 -88 -273 -306 -340 -447 -46 -96 -49 -174 -10 -249 46 -91 109 -128 217 -128 106 -1 173 46 240 168 199 359 547 568 945 568 265 -1 478 -75 685 -239 250 -199 400 -513 400 -838 0 -219 -74 -454 -193 -615 -161 -217 -371 -366 -606 -427 -167 -43 -386 -43 -556 0 -113 29 -279 107 -358 168 -125 97 -255 245 -310 353 -45 89 -82 131 -142 160 -49 24 -64 27 -125 23 -117 -9 -196 -78 -220 -192 -19 -92 24 -204 141 -367 29 -41 57 -79 63 -86 6 -6 31 -36 56 -65 24 -29 79 -84 121 -122 492 -438 1200 -527 1779 -223 89 47 220 133 265 174 11 10 41 36 66 58 45 39 131 132 192 206 39 48 162 255 183 309 9 25 20 50 25 55 18 25 71 222 89 330 30 192 33 266 15 419 -39 335 -148 594 -354 849 -238 293 -620 502 -1014 556 -104 14 -311 12 -417 -4z" transform="translate(0.000000,500.000000) scale(0.100000,-0.100000)"/><path d="M2394 3420 c-205 -37 -407 -147 -545 -298 -186 -204 -270 -439 -256 -721 7 -147 33 -249 97 -378 190 -386 606 -598 1035 -528 167 27 300 85 441 191 112 85 235 238 274 342 25 65 25 86 1 139 -33 72 -137 107 -208 70 -37 -20 -62 -49 -104 -121 -43 -74 -148 -180 -223 -225 -31 -18 -96 -47 -144 -64 -165 -56 -361 -36 -523 56 -79 44 -193 154 -238 230 -168 285 -110 638 140 848 68 57 109 82 179 108 153 56 260 64 392 31 86 -22 185 -65 233 -102 61 -46 154 -147 184 -199 58 -101 106 -139 174 -139 85 0 151 68 151 153 0 63 -32 129 -111 234 -126 168 -298 286 -508 348 -76 23 -113 28 -240 31 -82 1 -173 -1 -201 -6z" transform="translate(0.000000,500.000000) scale(0.100000,-0.100000)"/></g></svg>
