<!--
SPDX-FileCopyrightText: 2023 Marlon W (Mawoka)

SPDX-License-Identifier: MPL-2.0
-->
<svg version="1.0" xmlns="http://www.w3.org/2000/svg"
 width="500.000000pt" height="500.000000pt" viewBox="0 0 500.000000 500.000000"
 preserveAspectRatio="xMidYMid meet">
<metadata>
Created by potrace 1.16, written by Peter Selinger 2001-2019
</metadata>
<g transform="translate(0.000000,500.000000) scale(0.100000,-0.100000)"
fill="currentColor" stroke="none">
<path d="M1272 4522 c-20 -20 -49 -117 -81 -269 -10 -50 -22 -96 -25 -101 -31
-51 -49 -635 -24 -810 16 -115 18 -116 191 -69 73 19 171 43 217 52 47 9 92
20 101 24 8 5 67 14 130 21 194 20 171 8 255 123 92 124 221 274 304 352 97
91 130 127 130 140 0 38 -209 194 -363 271 -39 20 -74 40 -77 44 -8 11 -59 36
-146 70 -44 18 -101 42 -129 54 -91 42 -369 116 -432 116 -19 0 -41 -8 -51
-18z"/>
<path d="M3495 4511 c-142 -36 -253 -70 -285 -87 -14 -7 -70 -32 -125 -54 -55
-23 -116 -51 -136 -64 -19 -13 -62 -37 -95 -54 -72 -36 -238 -148 -305 -204
-28 -24 -49 -50 -49 -61 0 -11 23 -41 53 -69 158 -147 264 -265 382 -425 85
-115 61 -104 263 -124 67 -7 122 -16 122 -20 0 -4 26 -11 58 -15 31 -4 122
-25 202 -47 172 -47 212 -54 227 -35 55 65 46 767 -11 941 -8 23 -20 69 -26
102 -19 96 -48 196 -65 221 -21 32 -67 31 -210 -5z"/>
<path d="M2429 3622 c-100 -65 -320 -246 -333 -272 -12 -27 0 -50 25 -50 35 0
242 40 265 51 32 16 174 5 314 -25 159 -33 180 -33 180 -3 0 13 -6 30 -12 39
-25 30 -279 234 -332 265 -30 18 -77 16 -107 -5z"/>
<path d="M1885 3243 c-11 -3 -24 -9 -30 -13 -5 -4 -59 -24 -120 -45 -110 -38
-223 -91 -257 -122 -23 -20 -23 -67 -3 -233 21 -173 34 -232 55 -260 29 -38
50 -17 86 86 61 175 92 253 110 277 36 46 126 152 176 206 69 76 62 124 -17
104z"/>
<path d="M3027 3244 c-17 -18 -5 -56 31 -92 20 -21 55 -60 76 -87 22 -28 45
-54 51 -60 33 -28 85 -110 100 -157 10 -29 24 -64 31 -78 7 -14 25 -64 39
-112 27 -92 42 -113 73 -104 25 8 35 50 62 245 28 217 27 243 -11 275 -17 14
-35 26 -41 26 -6 0 -19 6 -27 14 -9 8 -74 35 -146 60 -71 26 -137 50 -146 55
-24 14 -83 23 -92 15z"/>
<path d="M997 3171 c-48 -22 -93 -43 -100 -49 -6 -5 -50 -30 -97 -54 -199
-105 -442 -288 -610 -459 -73 -74 -100 -114 -100 -148 0 -53 154 -208 400
-403 169 -133 570 -348 651 -348 27 0 46 32 58 100 20 105 71 290 95 345 13
27 29 68 36 90 7 22 16 45 20 50 4 6 11 21 15 35 4 14 19 48 32 77 l25 51 -56
139 c-31 76 -63 150 -71 165 -18 35 -68 216 -90 328 -10 47 -21 93 -26 103
-16 29 -83 21 -182 -22z"/>
<path d="M3793 3196 c-6 -8 -19 -52 -28 -97 -19 -101 -85 -342 -96 -349 -4 -3
-21 -39 -37 -80 -17 -41 -42 -104 -56 -140 l-26 -64 44 -106 c24 -58 49 -122
57 -142 7 -21 16 -38 20 -38 4 0 9 -10 12 -22 2 -13 18 -70 35 -128 17 -58 39
-145 48 -195 10 -49 23 -96 30 -102 18 -19 61 -16 123 8 72 27 341 170 341
180 0 5 5 9 10 9 40 0 303 200 467 355 125 118 152 170 119 233 -20 39 -266
271 -338 320 -13 9 -43 33 -67 54 -24 21 -48 38 -54 38 -5 0 -38 20 -74 45
-61 43 -229 138 -318 179 -116 55 -188 69 -212 42z"/>
<path d="M2419 2667 c-62 -23 -111 -71 -127 -125 -27 -88 -3 -187 54 -230 16
-12 35 -27 43 -33 34 -29 179 -29 189 0 2 6 10 11 17 11 20 0 71 64 85 106 17
51 7 140 -20 187 -43 73 -160 114 -241 84z"/>
<path d="M1529 2362 c-19 -22 -33 -92 -54 -262 -22 -180 -20 -214 10 -238 13
-11 39 -25 57 -32 18 -7 40 -19 48 -25 16 -13 34 -20 184 -71 112 -38 153 -42
163 -17 8 20 -6 43 -86 135 -35 40 -81 93 -102 118 -39 45 -69 115 -134 310
-34 101 -54 120 -86 82z"/>
<path d="M3376 2338 c-8 -24 -20 -61 -27 -83 -20 -66 -84 -221 -104 -252 -20
-30 -108 -135 -181 -217 -45 -50 -55 -80 -29 -89 46 -18 411 119 460 173 16
18 17 31 11 117 -13 184 -47 371 -70 385 -26 18 -45 7 -60 -34z"/>
<path d="M3725 1694 c-39 -20 -319 -90 -420 -104 -44 -7 -89 -15 -100 -20 -11
-5 -50 -11 -86 -14 -36 -3 -77 -10 -90 -16 -13 -6 -55 -54 -94 -107 -104 -142
-290 -349 -369 -408 -61 -47 -70 -89 -29 -124 51 -45 87 -72 128 -98 22 -15
64 -42 94 -62 100 -66 328 -180 424 -211 33 -11 65 -24 71 -29 35 -27 330
-101 406 -101 61 0 59 -3 105 172 68 254 87 402 88 673 2 248 -12 399 -39 443
-17 26 -47 28 -89 6z"/>
<path d="M1146 1658 c-10 -16 -18 -76 -27 -208 -10 -160 -9 -211 5 -370 10
-102 24 -214 31 -250 54 -253 99 -412 122 -435 21 -22 81 -18 196 11 99 25
247 73 284 93 10 5 63 28 118 51 54 23 117 53 140 67 22 13 72 44 112 66 130
75 254 163 324 229 31 30 23 57 -33 110 -184 174 -283 279 -361 383 -105 140
-100 136 -212 146 -55 5 -122 13 -150 19 -27 5 -90 17 -140 26 -49 8 -142 29
-205 46 -161 44 -185 46 -204 16z"/>
<path d="M2815 1654 c-295 -62 -345 -64 -542 -24 -221 46 -237 8 -58 -134 68
-55 90 -71 197 -148 61 -45 92 -47 139 -13 19 14 55 40 80 58 57 39 160 120
211 166 73 64 59 113 -27 95z"/>
</g>
</svg>
